<?xml version="1.0" encoding="utf-8"?>
<!-- Generator: Adobe Illustrator 24.1.2, SVG Export Plug-In . SVG Version: 6.00 Build 0)  -->
<svg version="1.0" id="Capa_1" xmlns="http://www.w3.org/2000/svg" xmlns:xlink="http://www.w3.org/1999/xlink" x="0px" y="0px"
	 viewBox="0 0 477.9 477.9" style="enable-background:new 0 0 477.9 477.9;" xml:space="preserve">
<g>
	<g>
		<path style="fill:#FFFFFF;" d="M421.6,90.3L336.3,5c-1.6-1.6-3.5-2.9-5.6-3.7c-2.1-0.8-4.3-1.3-6.5-1.3H102.4C74.1,0,51.2,22.9,51.2,51.2
			v375.5c0,28.3,22.9,51.2,51.2,51.2h273.1c28.3,0,51.2-22.9,51.2-51.2V102.4C426.6,97.9,424.8,93.5,421.6,90.3z M341.3,58.3
			l27.1,27.1h-27.1V58.3z M392.5,426.7c0,9.4-7.6,17.1-17.1,17.1H102.4c-9.4,0-17.1-7.6-17.1-17.1V51.2c0-9.4,7.6-17.1,17.1-17.1
			h204.8v68.3c0,9.4,7.6,17.1,17.1,17.1h68.3L392.5,426.7L392.5,426.7z"/>
	</g>
</g>
</svg>
