<?xml version="1.0" encoding="utf-8"?>
<!-- Generator: Adobe Illustrator 24.1.2, SVG Export Plug-In . SVG Version: 6.00 Build 0)  -->
<svg version="1.0" id="Layer_1" xmlns="http://www.w3.org/2000/svg" xmlns:xlink="http://www.w3.org/1999/xlink" x="0px" y="0px"
	 viewBox="0 0 688.3 612" style="enable-background:new 0 0 688.3 612;" xml:space="preserve">
<g>
	<g>
		<path style="fill:#FFFFFF;" d="M504.5,131.5c-10-10-26.2-10-36.2,0L161.6,438.2L43.7,320.3c-10-10-26.2-10-36.2,0
			c-10,10-10,26.2,0,36.2l136,136c10,10,26.2,10,36.2,0l324.8-324.8C514.5,157.7,514.5,141.5,504.5,131.5z"/>
	</g>
</g>
<g>
	<g>
		<path style="fill:#FFFFFF;" d="M680.8,131.5c-10-10-26.2-10-36.2,0L337.8,438.2L220,320.3c-10-10-26.2-10-36.2,0
			c-10,10-10,26.2,0,36.2l136,136c10,10,26.2,10,36.2,0l324.8-324.8C690.7,157.7,690.7,141.5,680.8,131.5z"/>
	</g>
</g>
</svg>
