<?xml version="1.0" encoding="utf-8"?>
<!-- Generator: Adobe Illustrator 24.1.2, SVG Export Plug-In . SVG Version: 6.00 Build 0)  -->
<svg version="1.1" id="Слой_1" xmlns="http://www.w3.org/2000/svg" xmlns:xlink="http://www.w3.org/1999/xlink" x="0px" y="0px"
	 viewBox="0 0 484 484" style="enable-background:new 0 0 484 484;" xml:space="preserve">
<path d="M416.6,33.2c-24.4-24.4-63.9-24.4-88.3,0l-22.1,22.2L71,290.6l-0.5,0.5c-0.1,0.1-0.1,0.3-0.3,0.3c-0.3,0.4-0.6,0.7-0.9,1.1
	c0,0.1-0.1,0.1-0.1,0.3c-0.3,0.4-0.4,0.6-0.6,1c-0.1,0.1-0.1,0.2-0.2,0.4c-0.1,0.4-0.3,0.6-0.4,1c0,0.1-0.1,0.1-0.1,0.3l-52.2,157
	c-1.5,4.5-0.4,9.4,3,12.7c2.4,2.3,5.6,3.6,8.9,3.6c1.4,0,2.7-0.2,4-0.6l156.8-52.3c0.1,0,0.1,0,0.3-0.1c0.4-0.1,0.8-0.3,1.1-0.5
	c0.1,0,0.2-0.1,0.3-0.1c0.4-0.3,0.9-0.5,1.2-0.8c0.4-0.2,0.8-0.6,1.1-0.9c0.1-0.1,0.2-0.1,0.2-0.3c0.1-0.1,0.4-0.2,0.5-0.5
	l257.4-257.4c24.4-24.4,24.4-63.9,0-88.3L416.6,33.2z M184.4,386.4l-86.9-86.9L315,81.9l86.9,86.9L184.4,386.4z M85.2,322.6
	l75.9,75.9l-114,38L85.2,322.6z M432.9,137.8l-13.2,13.4l-86.9-86.9l13.4-13.4c14.6-14.6,38.3-14.6,52.9,0l34,34
	C447.5,99.5,447.5,123.1,432.9,137.8z"/>
</svg>
