<?xml version="1.0" encoding="iso-8859-1"?>
<!-- Generator: Adobe Illustrator 19.0.0, SVG Export Plug-In . SVG Version: 6.00 Build 0)  -->
<svg version="1.1" id="Layer_1" xmlns="http://www.w3.org/2000/svg" xmlns:xlink="http://www.w3.org/1999/xlink" x="0px" y="0px"
	 viewBox="0 0 476.258 476.258" style="enable-background:new 0 0 476.258 476.258;" xml:space="preserve">
<path d="M476.235,119.133L357.158,0L206.936,134.654c-19.906-7.082-39.446-10.666-58.205-10.666
	c-31.648,0-58.709,10.364-78.259,29.972l-10.574,10.607l115.305,115.298L0.023,455.045l21.213,21.213l175.18-175.181
	l115.325,115.318l10.606-10.614c16.936-16.948,27.105-39.913,29.41-66.414c1.905-21.911-1.6-45.947-10.156-70.022L476.235,119.133z
	 M434.942,120.257L323.736,244.33l-91.784-91.811L356.025,41.303L434.942,120.257z M310.52,372.75L103.519,165.76
	c12.401-7.74,27.764-11.773,45.212-11.773c16.56,0,34.831,3.715,53.014,10.748l109.781,109.813
	C326.418,312.819,325.869,348.207,310.52,372.75z"/>
<g>
</g>
<g>
</g>
<g>
</g>
<g>
</g>
<g>
</g>
<g>
</g>
<g>
</g>
<g>
</g>
<g>
</g>
<g>
</g>
<g>
</g>
<g>
</g>
<g>
</g>
<g>
</g>
<g>
</g>
</svg>
