<?xml version="1.0" encoding="utf-8"?>
<!-- Generator: Adobe Illustrator 25.0.0, SVG Export Plug-In . SVG Version: 6.00 Build 0)  -->
<svg version="1.1" id="Слой_1" xmlns="http://www.w3.org/2000/svg" xmlns:xlink="http://www.w3.org/1999/xlink" x="0px" y="0px"
	 viewBox="0 0 512 512" style="enable-background:new 0 0 512 512;" xml:space="preserve">
<g id="Solid">
	<path d="M182.5,155.5l49.5-49.5V368c0,13.3,10.7,24,24,24c13.3,0,24-10.7,24-24V105.9l49.5,49.5c9.3,9.4,24.5,9.4,33.9,0.1
		s9.4-24.5,0.1-33.9c0,0-0.1-0.1-0.1-0.1L273,31c-9.4-9.4-24.6-9.4-33.9,0c0,0,0,0,0,0l-90.5,90.5c-9.4,9.3-9.4,24.5-0.1,33.9
		C157.8,164.9,173,164.9,182.5,155.5C182.4,155.5,182.4,155.5,182.5,155.5L182.5,155.5z"/>
	<path d="M464,232c-13.3,0-24,10.7-24,24v184H72V256c0-13.3-10.7-24-24-24s-24,10.7-24,24v192c0,22.1,17.9,40,40,40h384
		c22.1,0,40-17.9,40-40V256C488,242.7,477.3,232,464,232z"/>
</g>
</svg>
